<svg width="170" height="24" viewBox="0 0 170 24" version="1.1" xmlns="http://www.w3.org/2000/svg" xmlns:xlink="http://www.w3.org/1999/xlink" xmlns:figma="http://www.figma.com/figma/ns">
<title>HeadLogoSmall</title>
<desc>Created using Figma</desc>
<g id="Canvas" transform="translate(-5134 304)" figma:type="canvas">
<g id="HeadLogoSmall" figma:type="frame">
<g id="WordMark" figma:type="frame">
<g id="Shape" figma:type="vector">
<use xlink:href="#path0_fill" transform="translate(5166.28 -298.618)"/>
</g>
<g id="Shape" figma:type="vector-operation">
<use xlink:href="#path1_fill" transform="translate(5177.29 -298.618)"/>
</g>
<g id="Shape" figma:type="vector">
<use xlink:href="#path2_fill" transform="translate(5192.02 -298.246)"/>
</g>
<g id="Shape" figma:type="vector">
<use xlink:href="#path3_fill" transform="translate(5206.18 -298.345)"/>
</g>
<g id="Shape" figma:type="vector">
<use xlink:href="#path4_fill" transform="translate(5214.42 -298.618)"/>
</g>
<g id="Shape" figma:type="vector-operation">
<use xlink:href="#path5_fill" transform="translate(5227.44 -298.62)"/>
</g>
<g id="Shape" figma:type="vector-operation">
<use xlink:href="#path6_fill" transform="translate(5240.71 -298.47)"/>
</g>
<g id="Shape" figma:type="vector">
<use xlink:href="#path7_fill" transform="translate(5255.88 -298.345)"/>
</g>
<g id="Shape" figma:type="vector-operation">
<use xlink:href="#path8_fill" transform="translate(5264.49 -298.619)"/>
</g>
<g id="Shape" figma:type="vector-operation">
<use xlink:href="#path9_fill" transform="translate(5278.1 -298.518)"/>
</g>
<g id="Shape" figma:type="vector">
<use xlink:href="#path10_fill" transform="translate(5292.79 -304)"/>
</g>
</g>
<g id="LogoMark" figma:type="frame">
<g id="Shape" figma:type="vector">
<use xlink:href="#path11_fill" transform="translate(5140.66 -303.884)" fill="#F96216"/>
</g>
<g id="Shape" figma:type="vector">
<use xlink:href="#path12_fill" transform="translate(5136.77 -301.734)" fill="#B200F8"/>
</g>
<g id="Shape" figma:type="vector">
<use xlink:href="#path13_fill" transform="translate(5134 -297.462)" fill="#00B4F2"/>
</g>
</g>
</g>
</g>
<defs>
<path id="path0_fill" fill-rule="evenodd" d="M 2.82624 8.55744C 2.85888 9.03744 3.0576 9.46656 3.42144 9.84672C 3.78432 10.2269 4.33056 10.4179 5.05824 10.4179C 5.60448 10.4179 6.00864 10.2979 6.27456 10.0579C 6.5376 9.81888 6.67104 9.5328 6.67104 9.20256C 6.67104 8.92128 6.5712 8.67744 6.37248 8.47008C 6.17376 8.26368 5.83488 8.11104 5.35584 8.0112L 3.744 7.63872C 2.5536 7.37472 1.6848 6.91584 1.13952 6.26208C 0.59424 5.60928 0.32064 4.8528 0.32064 3.99264C 0.32064 3.4464 0.43584 2.93088 0.66816 2.44224C 0.89952 1.95456 1.21728 1.53312 1.62336 1.17696C 2.02848 0.82176 2.50752 0.53664 3.0624 0.3216C 3.61632 0.10752 4.22304 0 4.88544 0C 5.74464 0 6.47232 0.12 7.06752 0.36C 7.66272 0.6 8.14656 0.90144 8.51808 1.26528C 8.89056 1.62912 9.16704 2.01312 9.34848 2.41824C 9.52992 2.82336 9.63744 3.19104 9.67104 3.52224L 6.91872 4.14144C 6.88512 3.96 6.83136 3.77376 6.75744 3.58368C 6.68352 3.3936 6.56352 3.216 6.3984 3.04992C 6.23232 2.8848 6.03072 2.75232 5.79072 2.65344C 5.55072 2.55456 5.25792 2.50464 4.9104 2.50464C 4.48032 2.50464 4.11264 2.6208 3.8064 2.8512C 3.50112 3.08352 3.34752 3.37248 3.34752 3.71904C 3.34752 4.01664 3.45024 4.25664 3.6576 4.43904C 3.864 4.62048 4.1328 4.74432 4.464 4.81056L 6.19968 5.18208C 7.4064 5.43072 8.31168 5.89344 8.91552 6.5712C 9.51936 7.24992 9.8208 8.03424 9.8208 8.92704C 9.8208 9.42432 9.7248 9.91104 9.53568 10.3901C 9.34464 10.8701 9.05184 11.2992 8.65536 11.6803C 8.25888 12.0614 7.76256 12.3667 7.16736 12.5981C 6.57216 12.8285 5.87808 12.9446 5.08416 12.9446C 4.15872 12.9446 3.38208 12.8122 2.75328 12.5482C 2.12448 12.2842 1.6128 11.9606 1.21536 11.5805C 0.81792 11.2003 0.52512 10.7914 0.33504 10.3536C 0.14496 9.91488 0.03264 9.5232 0 9.17568L 2.82624 8.55744Z"/>
<path id="path1_fill" fill-rule="evenodd" d="M 6.39936 0C 7.30848 0 8.15616 0.16032 8.94144 0.48288C 9.72672 0.80544 10.4045 1.25184 10.9757 1.82208C 11.5459 2.39232 11.9923 3.07488 12.3149 3.86784C 12.6374 4.66176 12.7987 5.5296 12.7987 6.47232C 12.7987 7.41504 12.6374 8.27808 12.3149 9.06432C 11.9923 9.85056 11.5459 10.5322 10.9757 11.1101C 10.4054 11.6899 9.72672 12.1392 8.94144 12.4618C 8.15616 12.7843 7.30848 12.9456 6.39936 12.9456C 5.48928 12.9456 4.6416 12.7843 3.85728 12.4618C 3.072 12.1392 2.39424 11.689 1.824 11.1101C 1.2528 10.5322 0.8064 9.85056 0.48384 9.06432C 0.16128 8.27808 0 7.41504 0 6.47232C 0 5.53056 0.16128 4.66176 0.48384 3.86784C 0.8064 3.07392 1.2528 2.39232 1.824 1.82208C 2.39424 1.25184 3.072 0.80544 3.85728 0.48288C 4.64256 0.16128 5.49024 0 6.39936 0ZM 6.39966 9.94464C 6.7971 9.94464 7.18494 9.87168 7.5651 9.72192C 7.94526 9.57408 8.27646 9.35424 8.55774 9.06528C 8.83806 8.77632 9.06558 8.41632 9.2403 7.98624C 9.41406 7.55616 9.50046 7.05216 9.50046 6.47328C 9.50046 5.8944 9.41406 5.3904 9.2403 4.96032C 9.06558 4.5312 8.83902 4.1712 8.55774 3.88128C 8.27646 3.59232 7.94622 3.37344 7.5651 3.22368C 7.18494 3.07488 6.7971 3.00096 6.39966 3.00096C 6.00318 3.00096 5.61438 3.07488 5.23422 3.22368C 4.85406 3.37248 4.52382 3.59232 4.24254 3.88128C 3.96126 4.1712 3.7347 4.5312 3.56094 4.96032C 3.38718 5.3904 3.30078 5.8944 3.30078 6.47328C 3.30078 7.05216 3.38814 7.5552 3.56094 7.98624C 3.7347 8.41632 3.96126 8.77632 4.24254 9.06528C 4.52382 9.35424 4.85406 9.57312 5.23422 9.72192C 5.61438 9.87168 6.00318 9.94464 6.39966 9.94464Z"/>
<path id="path2_fill" fill-rule="evenodd" d="M 8.10912 12.2026C 8.07552 12.0691 8.05056 11.88 8.0352 11.6314C 8.01792 11.3827 8.01024 11.135 8.01024 10.8874C 7.67904 11.4672 7.1952 11.8838 6.55968 12.1411C 5.92224 12.3965 5.28192 12.5251 4.63776 12.5251C 3.89376 12.5251 3.23712 12.3955 2.66592 12.1411C 2.09568 11.8838 1.61184 11.5411 1.21536 11.111C 0.81792 10.681 0.51648 10.1722 0.31008 9.5856C 0.10368 8.99904 0 8.37408 0 7.7136L 0 0L 3.29856 0L 3.29856 7.04352C 3.29856 7.73856 3.47616 8.32032 3.83232 8.79168C 4.18752 9.26208 4.75392 9.49824 5.53152 9.49824C 6.27552 9.49824 6.84672 9.27552 7.2432 8.82912C 7.63968 8.38272 7.8384 7.80384 7.8384 7.09248L 7.8384 0L 11.137 0L 11.137 9.99456C 11.137 10.4746 11.1494 10.9085 11.1744 11.2973C 11.1994 11.6861 11.2282 11.9875 11.2608 12.2026L 8.10912 12.2026Z"/>
<path id="path3_fill" fill-rule="evenodd" d="M 7.44 3.37248C 7.10976 3.30624 6.77952 3.27264 6.44832 3.27264C 6.01824 3.27264 5.61312 3.3312 5.23296 3.4464C 4.8528 3.56256 4.5216 3.75264 4.24128 4.01664C 3.96 4.2816 3.73248 4.63296 3.55968 5.07072C 3.38592 5.50944 3.29952 6.05952 3.29952 6.72L 3.29952 12.3005L 0 12.3005L 0 0.09888L 3.19968 0.09888L 3.19968 1.90944C 3.38112 1.512 3.61728 1.18656 3.90624 0.92928C 4.1952 0.67392 4.50144 0.48 4.824 0.34656C 5.1456 0.21408 5.46912 0.12384 5.79072 0.07392C 6.11328 0.02496 6.40704 0 6.67104 0C 6.80352 0 6.9312 0.00384 7.05504 0.01248C 7.17888 0.02112 7.30752 0.0336 7.43904 0.04992L 7.43904 3.37248L 7.44 3.37248Z"/>
<path id="path4_fill" fill-rule="evenodd" d="M 6.39936 3.05088C 5.96928 3.05088 5.568 3.12576 5.19648 3.2736C 4.824 3.42336 4.4976 3.64224 4.21728 3.9312C 3.936 4.22112 3.71232 4.58016 3.5472 5.01024C 3.38112 5.44032 3.29952 5.928 3.29952 6.47328C 3.29952 7.01856 3.38112 7.5072 3.5472 7.93632C 3.71232 8.36736 3.93984 8.72928 4.2288 9.02784C 4.51776 9.3264 4.84896 9.54912 5.22048 9.69696C 5.59296 9.84576 5.99328 9.91968 6.42336 9.91968C 6.83712 9.91968 7.2048 9.8592 7.52736 9.7344C 7.84896 9.61056 8.1264 9.44928 8.35872 9.25056C 8.59008 9.05184 8.77632 8.82912 8.91648 8.58144C 9.05664 8.33376 9.16032 8.09376 9.22656 7.8624L 12.1277 8.82912C 11.9952 9.34272 11.7763 9.84384 11.4701 10.3296C 11.1638 10.8173 10.7712 11.255 10.2922 11.6448C 9.81216 12.0326 9.25056 12.3466 8.60544 12.5856C 7.96128 12.8256 7.23264 12.9456 6.42336 12.9456C 5.53056 12.9456 4.69152 12.7843 3.90624 12.4618C 3.12096 12.1392 2.43936 11.689 1.86048 11.1101C 1.2816 10.5322 0.82752 9.8496 0.49728 9.06432C 0.16608 8.27904 0 7.41504 0 6.47232C 0 5.53056 0.16128 4.66176 0.48384 3.86784C 0.8064 3.07392 1.2528 2.39232 1.824 1.82208C 2.39424 1.25184 3.06432 0.80544 3.83232 0.48288C 4.60128 0.16128 5.43264 0 6.32448 0C 7.152 0 7.8912 0.12 8.544 0.36C 9.1968 0.6 9.7632 0.90912 10.2432 1.29024C 10.7232 1.6704 11.111 2.10816 11.4086 2.60448C 11.7062 3.1008 11.9213 3.6048 12.0538 4.11744L 9.10272 5.10912C 8.95392 4.59744 8.66784 4.12608 8.2464 3.696C 7.82496 3.26592 7.20864 3.05088 6.39936 3.05088Z"/>
<path id="path5_fill" fill-rule="evenodd" d="M 11.8522 9.07968C 11.7043 9.60864 11.4701 10.1078 11.1475 10.5792C 10.825 11.0496 10.4314 11.4595 9.96768 11.8061C 9.50496 12.1536 8.96448 12.4291 8.34432 12.6365C 7.72416 12.8438 7.04352 12.9466 6.29856 12.9466C 5.45472 12.9466 4.65312 12.8016 3.8928 12.5126C 3.13248 12.2227 2.4624 11.7974 1.88448 11.2358C 1.3056 10.6733 0.84672 9.98784 0.50784 9.17568C 0.16896 8.36736 0 7.44864 0 6.42336C 0 5.448 0.16416 4.56288 0.49632 3.76992C 0.82656 2.976 1.26912 2.30304 1.82304 1.74912C 2.37696 1.1952 3.01728 0.76512 3.74592 0.45984C 4.47264 0.1536 5.22528 0 6.00192 0C 7.90272 0 9.38208 0.56256 10.4419 1.68672C 11.4998 2.81088 12.0278 4.35648 12.0278 6.32448C 12.0278 6.5568 12.0202 6.77472 12.0038 6.98208C 11.9866 7.18848 11.9798 7.30848 11.9798 7.34112L 3.2496 7.34112C 3.26592 7.7376 3.36192 8.10624 3.53568 8.44416C 3.70848 8.784 3.93216 9.07776 4.2048 9.32544C 4.47744 9.57312 4.79616 9.768 5.16 9.90816C 5.52384 10.0483 5.91168 10.1184 6.32544 10.1184C 7.10208 10.1184 7.7088 9.94368 8.14752 9.59712C 8.58624 9.25056 8.90496 8.80416 9.10176 8.25792L 11.8522 9.07968ZM 8.77699 5.08608C 8.75971 4.78848 8.70019 4.49472 8.59171 4.20576C 8.48515 3.9168 8.32003 3.66048 8.09635 3.43776C 7.87171 3.21408 7.59235 3.03264 7.25251 2.89248C 6.91267 2.75232 6.51235 2.68128 6.04867 2.68128C 5.61955 2.68128 5.23939 2.75616 4.90915 2.90496C 4.57795 3.05376 4.29667 3.2448 4.06627 3.4752C 3.83395 3.70752 3.65731 3.96288 3.53347 4.24416C 3.40867 4.52544 3.33859 4.80576 3.32227 5.08704L 8.77699 5.08704L 8.77699 5.08608Z"/>
<path id="path6_fill" fill-rule="evenodd" d="M 2.97792 12.3024C 3.09216 12.9802 3.39936 13.5331 3.89472 13.9642C 4.392 14.3933 5.03616 14.6083 5.83008 14.6083C 6.87072 14.6083 7.67328 14.3395 8.23584 13.8029C 8.7984 13.2643 9.07968 12.4003 9.07968 11.2109L 9.07968 10.3171C 8.83008 10.7146 8.42496 11.0746 7.8624 11.3971C 7.30176 11.7187 6.57408 11.88 5.68224 11.88C 4.87008 11.88 4.1184 11.7322 3.42432 11.4336C 2.72832 11.136 2.13024 10.7232 1.62624 10.1933C 1.12224 9.66432 0.7248 9.04032 0.43584 8.32128C 0.14496 7.60224 0.00096 6.81312 0.00096 5.95296C 0.00096 5.14272 0.14112 4.37856 0.4224 3.65856C 0.70368 2.93952 1.09152 2.30688 1.5888 1.76064C 2.08416 1.21536 2.68032 0.78528 3.37344 0.47136C 4.06944 0.15744 4.83744 0 5.68128 0C 6.65664 0 7.42464 0.17376 7.98528 0.52032C 8.54784 0.86688 8.9376 1.248 9.15168 1.6608L 9.15168 0.22464L 12.3264 0.22464L 12.3264 11.112C 12.3264 11.9558 12.2064 12.7613 11.9683 13.5302C 11.7283 14.3002 11.351 14.977 10.8394 15.5645C 10.3258 16.151 9.66336 16.6224 8.856 16.9776C 8.04576 17.3328 7.06944 17.5114 5.92896 17.5114C 5.08512 17.5114 4.32 17.3914 3.6336 17.1523C 2.9472 16.9123 2.3472 16.5898 1.83552 16.1846C 1.32384 15.7786 0.90912 15.3082 0.59616 14.7715C 0.28128 14.233 0.08256 13.6752 0 13.0973L 2.97792 12.3024ZM 6.25126 9.05376C 7.09318 9.05376 7.78534 8.77248 8.32102 8.20992C 8.85958 7.64832 9.12742 6.89568 9.12742 5.95296C 9.12742 5.01024 8.84614 4.2624 8.28358 3.70848C 7.72102 3.15456 7.04422 2.87712 6.25126 2.87712C 5.83654 2.87712 5.45254 2.94816 5.0983 3.08832C 4.74214 3.22848 4.4311 3.43488 4.16614 3.70848C 3.90214 3.98112 3.69574 4.30848 3.54694 4.68864C 3.3991 5.0688 3.32422 5.4912 3.32422 5.95296C 3.32422 6.91296 3.5959 7.66944 4.14214 8.2224C 4.68742 8.77632 5.3911 9.05376 6.25126 9.05376Z"/>
<path id="path7_fill" fill-rule="evenodd" d="M 7.44096 3.37248C 7.11072 3.30624 6.78048 3.27264 6.44928 3.27264C 6.02016 3.27264 5.61504 3.3312 5.23392 3.4464C 4.8528 3.5616 4.52352 3.75264 4.24224 4.01664C 3.96096 4.2816 3.7344 4.63296 3.55968 5.07072C 3.38688 5.50944 3.30048 6.05952 3.30048 6.72L 3.30048 12.3005L 0 12.3005L 0 0.09888L 3.19872 0.09888L 3.19872 1.90944C 3.38208 1.512 3.61728 1.18656 3.9072 0.92928C 4.19616 0.67392 4.50144 0.48 4.824 0.34656C 5.14656 0.21408 5.46912 0.12384 5.79168 0.07392C 6.11424 0.02496 6.40704 0 6.67104 0C 6.80448 0 6.9312 0.00384 7.05504 0.01248C 7.1808 0.02112 7.30848 0.0336 7.43904 0.04992L 7.43904 3.37248L 7.44096 3.37248Z"/>
<path id="path8_fill" fill-rule="evenodd" d="M 0 9.25152C 0 8.70624 0.096 8.2224 0.28512 7.8C 0.47424 7.3776 0.73536 7.01088 1.06464 6.69696C 1.3968 6.38304 1.7808 6.13536 2.2176 5.95392C 2.65632 5.77248 3.13248 5.64 3.64416 5.55648L 6.64608 5.11008C 6.99264 5.06112 7.23264 4.95744 7.36416 4.80096C 7.4976 4.64352 7.56288 4.45824 7.56288 4.24224C 7.56288 3.81216 7.39392 3.44064 7.05504 3.12576C 6.7152 2.81184 6.19968 2.6544 5.50464 2.6544C 4.77696 2.6544 4.22016 2.85312 3.8304 3.2496C 3.44256 3.64704 3.22272 4.10976 3.17376 4.63872L 0.24672 4.01856C 0.29568 3.53856 0.44544 3.05952 0.69312 2.57952C 0.9408 2.10048 1.27968 1.6704 1.70976 1.29024C 2.1408 0.91008 2.66976 0.6 3.2976 0.36C 3.92544 0.12 4.65312 0 5.47968 0C 6.43776 0 7.2576 0.12768 7.93632 0.384C 8.61312 0.64032 9.16224 0.9792 9.58464 1.40064C 10.0061 1.82208 10.3123 2.31456 10.5014 2.87616C 10.6925 3.43872 10.7885 4.02528 10.7885 4.6368L 10.7885 10.6387C 10.7885 10.9699 10.8038 11.3213 10.8374 11.6928C 10.871 12.0643 10.9027 12.3581 10.9373 12.5741L 7.91136 12.5741C 7.87776 12.409 7.84992 12.1814 7.82496 11.8915C 7.80096 11.6026 7.78752 11.3424 7.78752 11.1101C 7.47264 11.5901 7.0224 12.0115 6.43584 12.3754C 5.84928 12.7392 5.10048 12.9206 4.19136 12.9206C 3.54624 12.9206 2.96352 12.8179 2.44416 12.6096C 1.92288 12.4032 1.48032 12.1315 1.11648 11.7917C 0.75264 11.4518 0.4752 11.064 0.28608 10.6262C 0.09696 10.1885 0 9.73152 0 9.25152ZM 4.88667 10.4669C 5.23131 10.4669 5.56731 10.4218 5.88987 10.3306C 6.21243 10.2394 6.49755 10.0829 6.74715 9.86016C 6.99483 9.63648 7.19163 9.34752 7.34139 8.99136C 7.48923 8.63712 7.56411 8.18496 7.56411 7.64064L 7.56411 7.09536L 4.81179 7.51584C 4.38267 7.58208 4.02075 7.73568 3.73371 7.97568C 3.44283 8.21568 3.29883 8.57568 3.29883 9.05376C 3.29883 9.41856 3.43035 9.74592 3.69627 10.0339C 3.96027 10.3219 4.35579 10.4669 4.88667 10.4669Z"/>
<path id="path9_fill" fill-rule="evenodd" d="M 0 17.1869L 0 0.27264L 3.20064 0.27264L 3.20064 1.76064C 3.48192 1.28064 3.94272 0.86784 4.58784 0.52032C 5.23296 0.1728 6.01824 0 6.94464 0C 7.83744 0 8.6304 0.16032 9.32544 0.48288C 10.0195 0.80544 10.6099 1.2528 11.0995 1.82304C 11.5872 2.39328 11.9549 3.06336 12.2016 3.83232C 12.4493 4.60128 12.5731 5.44032 12.5731 6.34944C 12.5731 7.27584 12.4378 8.13024 12.1642 8.91648C 11.8925 9.7008 11.5037 10.3795 10.9997 10.9498C 10.4938 11.52 9.888 11.9683 9.17568 12.289C 8.46528 12.6115 7.67904 12.7738 6.8208 12.7738C 5.97696 12.7738 5.25312 12.6288 4.64928 12.3398C 4.04736 12.0499 3.5952 11.6986 3.2976 11.2858L 3.2976 17.1878L 0 17.1878L 0 17.1869ZM 9.3268 6.37344C 9.3268 5.28192 9.03208 4.43904 8.44552 3.84288C 7.85896 3.24768 7.14472 2.95008 6.30088 2.95008C 5.86984 2.95008 5.47432 3.0288 5.11048 3.18624C 4.74664 3.34368 4.42408 3.5664 4.1428 3.85632C 3.86152 4.14624 3.6436 4.50048 3.48616 4.92192C 3.32872 5.34336 3.25 5.8272 3.25 6.37344C 3.25 6.91872 3.32872 7.40352 3.48616 7.82304C 3.6436 8.24448 3.86152 8.60448 4.1428 8.90304C 4.42408 9.2016 4.74664 9.42816 5.11048 9.58464C 5.47432 9.74304 5.86984 9.81984 6.30088 9.81984C 7.14472 9.81984 7.85896 9.51936 8.44552 8.91552C 9.03304 8.31264 9.3268 7.46496 9.3268 6.37344Z"/>
<path id="path10_fill" fill-rule="evenodd" d="M 3.29856 17.9568L 0 17.9568L 0 0L 3.29856 0L 3.29856 6.77088C 3.696 6.29088 4.2 5.94912 4.81152 5.74176C 5.42304 5.5344 6.0192 5.43168 6.59616 5.43168C 7.37472 5.43168 8.04768 5.55936 8.61696 5.81568C 9.18912 6.072 9.65952 6.41568 10.031 6.84576C 10.4045 7.27584 10.68 7.78752 10.8614 8.38368C 11.0429 8.97888 11.135 9.60672 11.135 10.2682L 11.135 17.9568L 7.83648 17.9568L 7.83648 10.8384C 7.83648 10.1434 7.65792 9.56544 7.30176 9.10176C 6.94752 8.63904 6.37152 8.40768 5.57856 8.40768C 4.88448 8.40768 4.3392 8.63424 3.94176 9.08928C 3.54624 9.54432 3.33024 10.1107 3.29664 10.7885L 3.29664 17.9568L 3.29856 17.9568Z"/>
<path id="path11_fill" fill-rule="evenodd" d="M 0.0855892 3.0275L 5.26859 22.0045C 5.61759 23.2795 6.93159 24.0305 8.20459 23.6825C 9.47759 23.3325 10.2266 22.0155 9.87859 20.7405L 4.69459 1.7625C 4.34559 0.487502 3.03159 -0.263498 1.75859 0.0855021C 0.486589 0.434502 -0.263411 1.7515 0.0855892 3.0275Z"/>
<path id="path12_fill" fill-rule="evenodd" d="M 13.581 0.806491L 0.601 15.4855C -0.274 16.4755 -0.183 17.9895 0.805 18.8665C 1.793 19.7435 3.303 19.6515 4.178 18.6615L 17.158 3.98249C 18.033 2.99249 17.942 1.47949 16.954 0.602491C 15.966 -0.274509 14.457 -0.183509 13.581 0.806491Z"/>
<path id="path13_fill" fill-rule="evenodd" d="M 1.63978 4.66927L 20.1508 10.8013C 21.4038 11.2173 22.7548 10.5353 23.1698 9.28027C 23.5848 8.02427 22.9038 6.67027 21.6518 6.25627L 3.13978 0.12127C 1.88678 -0.29273 0.535779 0.38727 0.121779 1.64327C -0.293221 2.89927 0.386779 4.25327 1.63978 4.66927Z"/>
</defs>
</svg>
